<?xml version="1.0" encoding="utf-8"?>
<!-- Generator: Adobe Illustrator 22.1.0, SVG Export Plug-In . SVG Version: 6.00 Build 0)  -->
<svg version="1.1" id="Layer_1" xmlns="http://www.w3.org/2000/svg" xmlns:xlink="http://www.w3.org/1999/xlink" x="0px" y="0px"
	 viewBox="0 0 320 320" style="enable-background:new 0 0 320 320;" xml:space="preserve">
<g>
	<path d="M160,0.5c-6.2,0-12.5,0.4-18.8,1.1C136.1,2.2,131,3,126,4.1c-9.8,2.1-19.4,5.2-28.6,9.1h125.3C202.9,4.9,181.6,0.5,160,0.5
		z"/>
	<path d="M104.4,309.6c17.8,6.6,36.5,10,55.6,10c20.9,0,41.6-4.1,60.8-12H99.2C100.9,308.2,102.6,308.9,104.4,309.6z"/>
	<path d="M267.7,263.2l-0.8,0.7c-4.5,3.9-12.4,6.8-18.3,6.8H54c-0.1,0-0.2,0-0.3,0l-0.5,0h-8c1.4,1.4,2.8,2.8,4.2,4.2
		c3.1,3,6.3,5.8,9.7,8.6h127.9l5.5,0h64.4c1.4,0,3.3-0.4,5.3-1.1c8.4-7,16-14.8,22.8-23.4h-6.2C275.5,259.1,270.2,261,267.7,263.2z"
		/>
	<path d="M124.8,132.3l0.8-0.7c4.5-3.9,12.4-6.8,18.3-6.8h171.6c-1-4.3-2.1-8.6-3.4-12.8H135.6c-3.3,0-8.6,2-11.2,4.2l-0.8,0.7
		c-4.5,3.9-12.4,6.8-18.3,6.8H4.6c-1,4.2-1.8,8.5-2.4,12.8h111.5C117,136.5,122.3,134.5,124.8,132.3z"/>
	<path d="M89,95.6l0.8-0.7c4.5-3.9,12.4-6.8,18.3-6.8h194.2c-2.2-4.4-4.6-8.6-7.2-12.8H99.8c-3.3,0-8.6,2-11.2,4.2l-0.8,0.7
		C83.3,84,75.4,87,69.5,87H18.1c-2.1,4.2-4.1,8.4-5.9,12.8h65.6C81.2,99.7,86.5,97.8,89,95.6z"/>
	<path d="M53.2,58.8l0.8-0.7c4.5-3.9,12.4-6.8,18.3-6.8h204.4c-4.2-4.5-8.7-8.8-13.3-12.8H63.9c-3.3,0-8.6,2-11.2,4.2L52,43.4
		c-0.9,0.8-2,1.6-3.2,2.3C43.2,51.1,38.1,56.9,33.4,63h8.7C45.4,63,50.7,61,53.2,58.8z"/>
	<path d="M319.1,148.8H171.4c-3.3,0-8.6,2-11.2,4.2l-0.8,0.7c-4.5,3.9-12.4,6.8-18.3,6.8H0.5c0,4.2,0.2,8.5,0.6,12.8h148.5
		c3.3,0,8.6-2,11.2-4.2l0.8-0.7c4.5-3.9,12.4-6.8,18.3-6.8h139.7c0-0.5,0-1.1,0-1.6C319.5,156.3,319.4,152.5,319.1,148.8z"/>
	<path d="M196,189.7l-0.8,0.7c-4.5,3.9-12.4,6.8-18.3,6.8H4.9c1,4.3,2.2,8.6,3.6,12.8h176.8c3.3,0,8.6-2,11.2-4.2l0.8-0.7
		c4.5-3.9,12.4-6.8,18.3-6.8h99.3c1-4.2,1.9-8.5,2.6-12.8H207.2C203.9,185.5,198.6,187.5,196,189.7z"/>
	<path d="M231.9,226.5l-0.8,0.7c-4.5,3.9-12.4,6.8-18.3,6.8H18.7c2.3,4.4,4.8,8.6,7.5,12.8h195c3.3,0,8.6-2,11.2-4.2l0.8-0.7
		c4.5-3.9,12.4-6.8,18.3-6.8h49.3c2.2-4.2,4.3-8.4,6.1-12.8H243C239.7,222.3,234.4,224.3,231.9,226.5z"/>
</g>
</svg>
