<?xml version="1.0" encoding="utf-8"?>
<!-- Generator: Adobe Illustrator 22.1.0, SVG Export Plug-In . SVG Version: 6.00 Build 0)  -->
<svg version="1.1" id="Layer_1" xmlns="http://www.w3.org/2000/svg" xmlns:xlink="http://www.w3.org/1999/xlink" x="0px" y="0px"
	 viewBox="0 0 759.3 147.3" style="enable-background:new 0 0 759.3 147.3;" xml:space="preserve">
<g>
	<path d="M75.5,2.5c-2.8,0-5.6,0.2-8.4,0.5c-2.3,0.3-4.6,0.6-6.8,1.1c-4.4,1-8.7,2.3-12.8,4.1h55.9C94.6,4.5,85.1,2.5,75.5,2.5z"/>
	<path d="M50.7,140.5c7.9,3,16.3,4.4,24.8,4.4c9.4,0,18.6-1.8,27.1-5.4H48.3C49.1,139.9,49.9,140.2,50.7,140.5z"/>
	<path d="M123.5,119.8l-0.4,0.3c-2,1.7-5.5,3-8.2,3H28.2c0,0-0.1,0-0.1,0l-0.2,0h-3.6c0.6,0.6,1.2,1.3,1.9,1.9
		c1.4,1.3,2.8,2.6,4.3,3.8h57.1l2.5,0h28.7c0.6,0,1.5-0.2,2.4-0.5c3.7-3.1,7.1-6.6,10.2-10.4h-2.8
		C127.1,118,124.7,118.9,123.5,119.8z"/>
	<path d="M59.8,61.4l0.4-0.3c2-1.7,5.5-3,8.2-3H145c-0.4-1.9-0.9-3.8-1.5-5.7H64.6c-1.5,0-3.8,0.9-5,1.9l-0.4,0.3
		c-2,1.7-5.5,3-8.2,3H6.1c-0.4,1.9-0.8,3.8-1.1,5.7h49.8C56.3,63.3,58.6,62.4,59.8,61.4z"/>
	<path d="M43.8,45l0.4-0.3c2-1.7,5.5-3,8.2-3h86.7c-1-1.9-2.1-3.9-3.2-5.7H48.6c-1.5,0-3.8,0.9-5,1.9l-0.4,0.3c-2,1.7-5.5,3-8.2,3
		H12.1c-1,1.9-1.8,3.8-2.6,5.7h29.3C40.3,46.9,42.7,46,43.8,45z"/>
	<path d="M27.8,28.6l0.4-0.3c2-1.7,5.5-3,8.2-3h91.2c-1.9-2-3.9-3.9-6-5.7h-89c-1.5,0-3.8,0.9-5,1.9l-0.4,0.3
		c-0.4,0.4-0.9,0.7-1.4,1c-2.5,2.4-4.8,5-6.9,7.7h3.9C24.3,30.4,26.7,29.6,27.8,28.6z"/>
	<path d="M80.6,68.7c-1.5,0-3.8,0.9-5,1.9l-0.4,0.3c-2,1.7-5.5,3-8.2,3H4.3c0,1.9,0.1,3.8,0.2,5.7h66.3c1.5,0,3.8-0.9,5-1.9l0.4-0.3
		c2-1.7,5.5-3,8.2-3h62.4c0-0.2,0-0.5,0-0.7c0-1.7-0.1-3.3-0.2-5H80.6z"/>
	<path d="M91.6,87l-0.4,0.3c-2,1.7-5.5,3-8.2,3H6.2c0.5,1.9,1,3.8,1.6,5.7h78.9c1.5,0,3.8-0.9,5-1.9l0.4-0.3c2-1.7,5.5-3,8.2-3h44.3
		c0.5-1.9,0.9-3.8,1.2-5.7H96.5C95.1,85.2,92.7,86,91.6,87z"/>
	<path d="M107.6,103.4l-0.4,0.3c-2,1.7-5.5,3-8.2,3H12.4c1,2,2.1,3.9,3.3,5.7h87.1c1.5,0,3.8-0.9,5-1.9l0.4-0.3c2-1.7,5.5-3,8.2-3
		h22c1-1.9,1.9-3.8,2.7-5.7h-28.5C111.1,101.6,108.7,102.5,107.6,103.4z"/>
	<polygon points="201.6,33.6 194.1,33.6 194.1,96.4 228.8,96.4 228.8,89.6 201.6,89.6 	"/>
	<path d="M257.7,47.5c-6.4,0-11.6,2.3-15.6,6.9C238,59,236,65,236,72.6c0,7.6,2.1,13.7,6.2,18.2c4.1,4.6,9.4,6.9,15.9,6.9
		c4.8,0,8.9-1.2,12.2-3.5c3.3-2.3,5.9-5.2,7.7-8.7l-5.9-3.9c-0.6,1.1-1,1.9-1.2,2.2c-0.2,0.4-0.8,1.1-1.7,2.3
		c-0.9,1.2-1.8,2-2.6,2.5c-0.8,0.5-2,1-3.6,1.5c-1.6,0.5-3.2,0.8-5,0.8c-4.7,0-8.2-1.6-10.7-4.8c-2.5-3.2-3.8-7-3.8-11.6h35.7v-2.2
		c0-7.8-2-13.9-5.9-18.4S264.1,47.5,257.7,47.5z M243.6,69c0.1-3.6,1.3-7,3.7-10.1c2.4-3.1,5.9-4.7,10.5-4.7c4.7,0,8.2,1.5,10.5,4.4
		c2.3,2.9,3.5,6.4,3.6,10.4H243.6z"/>
	<path d="M309.7,47.5c-6.4,0-11.6,2.3-15.6,6.9C290,59,288,65,288,72.6c0,7.6,2.1,13.7,6.2,18.2c4.1,4.6,9.4,6.9,15.9,6.9
		c4.8,0,8.9-1.2,12.2-3.5c3.3-2.3,5.9-5.2,7.7-8.7l-5.9-3.9c-0.6,1.1-1,1.9-1.2,2.2c-0.2,0.4-0.8,1.1-1.7,2.3
		c-0.9,1.2-1.8,2-2.6,2.5c-0.8,0.5-2,1-3.6,1.5c-1.6,0.5-3.2,0.8-5,0.8c-4.7,0-8.2-1.6-10.7-4.8c-2.5-3.2-3.8-7-3.8-11.6h35.7v-2.2
		c0-7.8-2-13.9-5.9-18.4S316.1,47.5,309.7,47.5z M295.6,69c0.1-3.6,1.3-7,3.7-10.1c2.4-3.1,5.9-4.7,10.5-4.7c4.7,0,8.2,1.5,10.5,4.4
		c2.3,2.9,3.5,6.4,3.6,10.4H295.6z"/>
	<path d="M364,47.5c-3.1,0-5.9,0.6-8.2,1.8c-2.4,1.2-4.2,2.6-5.4,4.1h-0.2v-4.6h-7v67.7h7.4V91.8h0.2c1,1.4,2.7,2.8,5.2,4
		c2.5,1.3,5.1,1.9,8.1,1.9c6.2,0,11.2-2.3,15-6.8c3.8-4.5,5.7-10.6,5.7-18.3c0-7.6-2-13.7-5.9-18.2C374.8,49.8,369.9,47.5,364,47.5z
		 M373.6,86.3c-2.5,3.2-6.2,4.8-10.9,4.8c-3.5,0-6.4-1-8.7-3.1c-2.3-2.1-3.5-4.5-3.5-7.2V65.7c0-2.9,1.1-5.6,3.4-8
		c2.2-2.4,5.2-3.6,8.8-3.6c4.7,0,8.3,1.6,10.9,4.9c2.6,3.3,3.9,7.8,3.9,13.6C377.4,78.5,376.2,83,373.6,86.3z"/>
	<polygon points="457,84.1 456.8,84.1 428.2,33.6 420.1,33.6 420.1,96.4 427.6,96.4 427.6,45.9 427.7,45.9 456.5,96.4 464.3,96.4 
		464.3,33.6 457,33.6 	"/>
	<path d="M499,47.5c-6.4,0-11.6,2.3-15.6,6.9c-4,4.6-6.1,10.7-6.1,18.2c0,7.6,2.1,13.7,6.2,18.2c4.1,4.6,9.4,6.9,15.9,6.9
		c4.8,0,8.9-1.2,12.2-3.5c3.3-2.3,5.9-5.2,7.7-8.7l-5.9-3.9c-0.6,1.1-1,1.9-1.2,2.2c-0.2,0.4-0.8,1.1-1.7,2.3
		c-0.9,1.2-1.8,2-2.6,2.5c-0.8,0.5-2,1-3.6,1.5c-1.6,0.5-3.2,0.8-5,0.8c-4.7,0-8.2-1.6-10.7-4.8c-2.5-3.2-3.8-7-3.8-11.6h35.7v-2.2
		c0-7.8-2-13.9-5.9-18.4C510.5,49.8,505.4,47.5,499,47.5z M484.9,69c0.1-3.6,1.3-7,3.7-10.1c2.4-3.1,5.9-4.7,10.5-4.7
		c4.7,0,8.2,1.5,10.5,4.4c2.3,2.9,3.5,6.4,3.6,10.4H484.9z"/>
	<path d="M541.4,37.2h-7v11.7h-6.8v6.5h6.6v27.2c0,4.6,1,8.1,3,10.4c2,2.3,5.2,3.5,9.7,3.5h3.9v-7.1h-3.6c-2.3,0-3.9-0.6-4.7-1.7
		c-0.8-1.1-1.2-3.1-1.2-5.9V55.4h11.7v-6.5h-11.7V37.2z"/>
	<polygon points="608,84.6 607.8,84.6 595.4,48.9 588.8,48.9 576.2,84.6 576.1,84.6 568.4,48.9 561.2,48.9 571.7,96.4 578.5,96.4 
		591.9,57.6 592.1,57.6 605.6,96.4 612.3,96.4 623.7,48.9 616.5,48.9 	"/>
	<path d="M652.9,47.5c-6,0-11.2,2.2-15.3,6.7c-4.2,4.5-6.3,10.6-6.3,18.4c0,7.9,2,14,6.1,18.5c4.1,4.4,9.2,6.6,15.5,6.6
		c6.2,0,11.2-2.2,15.2-6.6c4-4.4,6-10.6,6-18.5c0-7.8-2-13.9-6.1-18.4C663.9,49.8,658.9,47.5,652.9,47.5z M662.9,86.2
		c-2.7,3.3-6,4.9-10,4.9c-4.2,0-7.6-1.6-10.3-4.8c-2.7-3.2-4-7.8-4-13.7s1.3-10.5,4-13.7c2.7-3.2,6.1-4.8,10.3-4.8
		c4.1,0,7.4,1.6,10,4.9c2.6,3.3,3.9,7.8,3.9,13.6C666.9,78.4,665.6,83,662.9,86.2z"/>
	<path d="M705.4,48.3c-0.7-0.1-1.4-0.2-2.1-0.2c-1.9,0-3.8,0.5-5.6,1.5c-1.9,1-3.3,2.5-4.2,4.4h-0.2v-5.1h-7v47.5h7.4V68.1
		c0-4.4,0.7-7.6,2.1-9.6c1.4-2,3.6-3,6.6-3c1.6,0,2.9,0.2,3.8,0.7l1.3-7.3l-0.4-0.3C706.6,48.6,706.1,48.4,705.4,48.3z"/>
	<polygon points="737.7,67.7 755.1,48.9 745.3,48.9 725.3,70.7 725.1,70.7 725.1,30.9 717.8,30.9 717.8,96.4 725.1,96.4 725.1,79.9 
		732.2,72.3 732.4,72.3 748.7,96.4 757.2,96.4 	"/>
</g>
</svg>
